<svg xmlns="http://www.w3.org/2000/svg" id="Layer_2" viewBox="0 0 748.21 169.29">
  <defs>
    <style>
      .cls-1 {
        fill: #1c1c1c;
      }
    </style>
  </defs>
  <g id="Layer_1-2" data-name="Layer_1">
    <g>
      <path d="M684.53,129.78l21.92,36.86c.15.31.41.51.76.66.46.2,1.12.25,1.99.25h21.05v-5.25c-2.09-.71-4.03-1.84-5.81-3.36-1.94-1.68-3.93-4.13-6.07-7.39l-16.98-26.15,1.43-.36c5.3-1.22,9.43-3.57,12.39-6.93,2.96-3.36,4.43-7.55,4.43-12.39,0-3.36-.76-6.42-2.24-9.18-1.48-2.75-3.72-5.25-6.68-7.34-2.7-1.89-5.91-3.26-9.43-4.08-3.62-.87-8.92-1.27-15.75-1.27h-34.61v5.1c1.58.2,2.9.51,4.03.87,1.43.46,2.5,1.07,3.21,1.84.76.71,1.38,1.84,1.73,3.26.36,1.33.51,2.96.51,4.95v51.23c0,2.14-.15,3.98-.51,5.4-.36,1.58-.92,2.7-1.68,3.47-.77.71-1.78,1.27-3.26,1.78-1.12.36-2.5.61-4.08.82v5.1h37.52v-5.1c-1.53-.2-2.91-.46-4.03-.82-1.43-.46-2.5-1.02-3.26-1.73-.82-.76-1.38-1.94-1.73-3.52-.36-1.43-.51-3.26-.51-5.4v-21.72h5.4l.31.51-.05-.1ZM678.87,123.46v-30.08c0-1.17.41-2.09,1.17-2.7.71-.56,1.68-.87,3.06-.87,5.76,0,10.09,1.38,12.9,4.08,2.8,2.65,4.23,6.83,4.23,12.34s-1.43,10.09-4.23,13.05c-2.8,2.96-6.93,4.49-12.29,4.49-.76,0-1.94-.1-3.52-.25l-1.32-.05Z"></path>
      <path d="M629.08,146.6c-2.91,4.69-6.58,8.36-10.96,10.86-4.49,2.6-9.64,3.93-15.29,3.93-4.43,0-7.49-.87-9.33-2.6-1.78-1.73-2.7-4.69-2.7-8.72v-24.57h10.04c4.03,0,7.29,1.07,9.69,3.16,2.19,1.94,3.57,4.64,4.13,8.05h5.1v-26.46h-5.15c-.61,3.36-1.99,5.86-4.08,7.49-2.24,1.73-5.46,2.6-9.64,2.6h-10.04v-24.83c0-1.53.2-2.75.56-3.72.41-1.12,1.12-1.89,1.99-2.29.77-.36,1.89-.61,3.52-.82,1.53-.15,3.47-.25,5.81-.25,5.15,0,9.43.92,12.64,2.8,3.11,1.73,5.56,4.49,7.29,8.21h4.84v-15.6h-65.25v5.1c1.58.2,2.91.51,4.03.87,1.43.46,2.5,1.07,3.21,1.84.77.71,1.38,1.84,1.73,3.26.36,1.33.51,2.96.51,4.95v51.8c0,1.94-.15,3.62-.51,4.94-.36,1.43-.97,2.55-1.73,3.31-.76.71-1.78,1.33-3.21,1.78-1.12.36-2.45.61-4.03.87v5.1h67.19l4.64-20.95h-4.95l-.05-.1Z"></path>
      <path d="M545.29,144.87c-4.08,6.63-8.26,11.32-12.54,13.92h-.15c-4.33,2.7-10.2,3.98-17.38,3.98-2.96,0-5.35-.2-7.29-.66-2.09-.46-3.62-1.17-4.69-2.14-1.07-1.02-1.83-2.6-2.34-4.84-.46-2.09-.71-4.74-.71-7.95v-47.36c0-1.99.15-3.67.51-5,.36-1.43.92-2.55,1.68-3.31.76-.71,1.79-1.33,3.21-1.78,1.12-.36,2.45-.66,3.98-.87v-5h-38.03v5c1.58.2,2.96.51,4.08.92,1.43.46,2.5,1.07,3.26,1.84.76.76,1.32,1.84,1.68,3.26.36,1.33.51,3.01.51,4.95v51.8c0,1.94-.15,3.62-.51,4.95-.36,1.43-.97,2.55-1.73,3.31-.77.71-1.79,1.27-3.21,1.73-1.12.36-2.45.61-4.03.87v5.1h73.72l4.84-22.69h-4.84Z"></path>
      <path d="M446.78,146.6c-2.91,4.69-6.58,8.36-10.96,10.86-4.49,2.6-9.64,3.93-15.29,3.93-4.43,0-7.49-.87-9.33-2.6-1.78-1.73-2.7-4.69-2.7-8.72v-24.57h10.09c4.03,0,7.29,1.07,9.63,3.16,2.19,1.94,3.57,4.64,4.13,8.05h5.05v-26.46h-5.15c-.61,3.36-1.99,5.86-4.08,7.49-2.24,1.73-5.45,2.6-9.64,2.6h-10.09v-24.83c0-1.53.2-2.75.56-3.72.41-1.12,1.07-1.89,1.99-2.29.76-.36,1.89-.61,3.52-.82,1.53-.15,3.47-.25,5.81-.25,5.15,0,9.43.92,12.64,2.8,3.11,1.73,5.56,4.49,7.29,8.21h4.84v-15.6h-65.25v5.1c1.58.2,2.91.51,4.03.87,1.43.46,2.5,1.07,3.21,1.78.76.76,1.38,1.84,1.73,3.26.36,1.33.51,2.96.51,4.95v51.8c0,1.99-.15,3.62-.51,4.95-.36,1.43-.97,2.55-1.73,3.31-.76.71-1.83,1.33-3.26,1.78-1.12.36-2.45.61-4.03.82v5.1h67.19l4.64-20.95h-4.94.1Z"></path>
      <path d="M349.98,107.75c2.45-6.27,4.84-11.11,7.14-14.38,2.19-3.06,4.28-4.79,6.47-5.35v-4.18h-26.31v4.03c2.85.56,5.15,1.53,6.73,2.85,1.84,1.53,2.8,3.52,2.8,5.86,0,.41-.1.92-.26,1.63-.15.66-.36,1.48-.66,2.45-.61,1.89-1.48,4.49-2.65,7.65-2.29,6.27-5.86,15.19-10.5,26.56l-2.8,6.93-.97-2.29-16.72-39.97c-.46-1.17-.82-2.19-1.12-3.16-.26-1.07-.41-1.89-.41-2.55,0-1.74.59-3.1,1.72-4.14.19-.18.42-.32.65-.44.79-.4,2.73-1.3,4.15-1.38v-4.03h-35.02v5.1c1.79.31,3.31,1.02,4.54,2.19,1.38,1.27,2.75,3.57,4.18,7.04v.1l29.67,71.01h5.1c1.12-4.13,4.74-13.61,11.01-28.91,4.64-11.22,8.36-20.39,11.11-27.33,0,0,1.22-3.01,2.14-5.3Z"></path>
      <path d="M199.66,162.35v5.25h22.69v-5c-2.29-.1-4.13-.76-5.45-1.89-1.48-1.33-2.19-3.16-2.19-5.51,0-.66.05-1.38.2-2.14.1-.76.36-1.78.66-3.01l3.31-12.54h27.99l3.72,13.56c.31.97.51,1.78.66,2.55l.1.56c.15.82.26,1.48.26,2.04,0,2.04-.76,3.62-2.35,4.69-1.22.87-2.96,1.38-5.3,1.58v5.05h35.53v-5.15c-1.73-.41-3.26-1.38-4.59-2.85-1.48-1.63-2.75-4.03-3.88-7.14l-23.91-68.57h-18.76c.26.36.51.76.71,1.12.51.97.76,1.99.76,2.96,0,.31-.31,1.94-.51,2.7l-20.7,60.51c-1.38,3.93-2.7,6.58-4.13,8.16-1.22,1.43-2.85,2.45-4.84,3.06ZM232.85,96.95l11.57,35.13h-23.4l11.83-35.13Z"></path>
      <path d="M138.09,129.83l21.92,36.86c.15.31.41.51.76.66.46.2,1.12.25,1.99.25h21.05v-5.25c-2.09-.71-4.03-1.84-5.81-3.36-1.94-1.68-3.93-4.13-6.07-7.39l-16.98-26.15,1.43-.36c5.3-1.22,9.43-3.57,12.34-6.93,2.96-3.36,4.44-7.55,4.44-12.39,0-3.36-.76-6.42-2.24-9.18-1.48-2.75-3.72-5.25-6.68-7.34-2.7-1.89-5.91-3.26-9.48-4.08-3.62-.87-8.92-1.27-15.75-1.27h-34.56v5.1c1.58.2,2.9.51,4.03.87,1.43.46,2.5,1.07,3.21,1.84.76.71,1.38,1.84,1.73,3.26.36,1.33.51,2.96.51,4.95v51.23c0,2.19-.15,3.98-.51,5.4-.36,1.58-.92,2.7-1.68,3.47-.76.71-1.84,1.27-3.26,1.78-1.12.36-2.5.61-4.08.82v5.1h37.52v-5.1c-1.53-.2-2.91-.46-4.03-.82-1.43-.46-2.5-1.02-3.26-1.73-.82-.82-1.38-1.94-1.73-3.52-.36-1.43-.51-3.21-.51-5.4v-21.72h5.4l.31.41ZM132.43,123.46v-30.08c0-1.17.41-2.09,1.17-2.7.71-.56,1.68-.87,3.06-.87,5.76,0,10.09,1.38,12.9,4.08,2.8,2.65,4.23,6.83,4.23,12.34s-1.43,10.09-4.23,13.05c-2.8,2.96-6.93,4.49-12.29,4.49-.76,0-1.94-.1-3.52-.25l-1.32-.05Z"></path>
      <path d="M80.65,105.05h4.59l-1.78-21.21H2.35l-2.35,21.21h4.79c1.84-5.51,4.13-9.48,6.83-11.78,2.91-2.5,6.93-3.72,11.98-3.72h9.43v61.12c0,2.29-.1,3.93-.31,5.1-.2,1.22-.51,2.14-.97,2.85-.92,1.58-2.5,2.75-4.59,3.47-1.94.66-4.44,1.02-7.34,1.07v4.44h45.47v-4.44c-2.91,0-5.4-.36-7.34-1.07-2.09-.76-3.67-1.94-4.64-3.52-.46-.71-.76-1.63-.97-2.85-.15-1.12-.25-2.8-.25-5.05v-61.12h8.87c5.76,0,10.25,1.27,13.25,3.77,2.91,2.35,5.1,6.27,6.47,11.73h-.05Z"></path>
      <path class="cls-1" d="M304.67,29.3c-6.48,0-11.74-5.28-11.74-11.76s5.27-11.76,11.74-11.76,11.74,5.28,11.74,11.76-5.27,11.76-11.74,11.76ZM304.67,0c-9.67,0-17.5,7.85-17.5,17.53s7.84,17.53,17.5,17.53,17.5-7.85,17.5-17.53-7.84-17.53-17.5-17.53Z"></path>
      <path class="cls-1" d="M611,.68l-9.77,13.96-9.77-13.96h-6.72l13.54,19.19v14.53h5.89v-14.56s13.54-19.16,13.54-19.16h-6.72Z"></path>
      <path class="cls-1" d="M415.75,5.6h9.9c2.76,0,4.99,2,4.99,4.46s-2.24,4.46-4.99,4.46h-9.9V5.6ZM433.81,16.89l-.47-.35.4-.41c1.62-1.7,2.51-3.85,2.51-6.06,0-5.17-4.76-9.39-10.61-9.39h-15.79v33.72h16.69c6.19,0,11.23-4.46,11.23-9.93,0-2.92-1.45-5.69-3.97-7.57ZM426.55,29.47h-10.8v-10.02h10.8c3.09,0,5.61,2.25,5.61,5.01s-2.51,5.02-5.61,5.02Z"></path>
      <path class="cls-1" d="M535.98,23.17l-9.73-22.49h-6.48l14.85,33.72h2.72l14.85-33.72h-6.48l-9.73,22.49Z"></path>
      <path class="cls-1" d="M461.23,29.3c-6.47,0-11.74-5.28-11.74-11.76s5.27-11.76,11.74-11.76,11.74,5.28,11.74,11.76c0,6.48-5.26,11.76-11.74,11.76ZM461.23,0c-9.67,0-17.5,7.85-17.5,17.53s7.84,17.53,17.5,17.53,17.51-7.85,17.51-17.53-7.84-17.53-17.51-17.53Z"></path>
      <path class="cls-1" d="M507.78,22.42L488.67.68h-2.93v33.72h5.87V12.66l19.11,21.74h2.93V.68h-5.87v21.74Z"></path>
      <path d="M583.85,29.47h-29.56v4.92h29.56v-4.92Z"></path>
      <path class="cls-1" d="M569.07,18.55c-3.73,0-6.77-3.04-6.77-6.78s3.03-6.78,6.77-6.78,6.77,3.04,6.77,6.78c0,3.73-3.04,6.78-6.77,6.78ZM569.07,0c-6.47,0-11.74,5.28-11.74,11.76s5.27,11.76,11.74,11.76,11.74-5.28,11.74-11.76-5.26-11.76-11.74-11.76Z"></path>
      <path class="cls-1" d="M112.54,34.39V.68h6.73l10.67,19.2L140.6.68h6.73v33.71h-5.87V10.54l-9.39,17.29h-4.29l-9.39-17.29v23.85h-5.86Z"></path>
      <path class="cls-1" d="M166.76,22.82l5.35-11.57,5.36,11.57h-10.71ZM173.5.68h-2.78s-15.59,33.72-15.59,33.72h6.26s3.04-6.58,3.04-6.58h15.34l3.05,6.58h6.26S173.5.68,173.5.68Z"></path>
      <path class="cls-1" d="M202.63,5.6h10.8c3.09,0,5.61,2.25,5.61,5.01s-2.51,5.01-5.61,5.01h-10.8V5.6ZM215.04,20.43c5.43-.69,9.61-4.83,9.61-9.82,0-5.48-5.04-9.93-11.23-9.93h-16.69v33.7h5.87v-13.84h5.8l9.52,13.82v.02h6.71l-9.61-13.95Z"></path>
      <path class="cls-1" d="M240.26,5.61h10.8c3.09,0,5.61,2.25,5.61,5.01s-2.51,5.01-5.61,5.01h-10.8V5.61ZM252.67,20.44c5.43-.69,9.61-4.83,9.61-9.82,0-5.48-5.04-9.93-11.22-9.93h-16.69v33.7h5.87v-13.84h5.8l9.52,13.82v.02h6.71l-9.61-13.95Z"></path>
      <path class="cls-1" d="M278.11.69h-5.87v33.72h5.87V.69Z"></path>
      <path class="cls-1" d="M352.43.69h-26v5.39h10.07v28.33h5.87V6.08h10.07V.69Z"></path>
      <path class="cls-1" d="M384.28.69h-26.01v5.39h10.07v28.33h5.87V6.08h10.07V.69Z"></path>
      <g>
        <path d="M733.44,94.18v-9.42h-3.18v-.84h7.34v.84h-3.18v9.42h-.97Z"></path>
        <path d="M738.86,94.18v-10.26h1.32l3.39,9.04,3.32-9.04h1.32v10.26h-.91v-8.95l-3.3,8.95h-.87l-3.35-8.95v8.95h-.93Z"></path>
      </g>
    </g>
  </g>
</svg>
